<svg data-v-423bf9ae="" xmlns="http://www.w3.org/2000/svg" viewBox="0 0 566 107" class="iconLeft"><!----><!----><!----><g data-v-423bf9ae="" id="f8ca2cad-1128-42c6-b3dd-a7763bf3cd5a" fill="white" transform="matrix(4.815409295048693,0,0,4.815409295048693,98.06697559724057,15.929016661217247)"><path d="M1.09 8.89L1.69 8.89L1.69 8.89Q1.90 8.89 1.90 9.09L1.90 9.09L1.90 9.80L1.90 9.80Q1.90 10.44 2.07 10.70L2.07 10.70L2.07 10.70Q2.20 10.89 2.44 11.00L2.44 11.00L2.44 11.00Q2.67 11.13 3.02 11.13L3.02 11.13L3.02 11.13Q3.37 11.13 3.61 11.00L3.61 11.00L3.61 11.00Q3.85 10.89 3.98 10.70L3.98 10.70L3.98 10.70Q4.14 10.44 4.14 9.70L4.14 9.70L4.14 3.12L1.46 3.12L1.46 3.12Q1.25 3.12 1.25 2.93L1.25 2.93L1.25 2.45L1.25 2.45Q1.25 2.25 1.46 2.25L1.46 2.25L4.96 2.25L4.96 2.25Q5.17 2.25 5.17 2.45L5.17 2.45L5.17 9.81L5.17 9.81Q5.17 11.96 3.12 11.96L3.12 11.96L3.12 11.96Q0.87 11.96 0.87 9.81L0.87 9.81L0.88 9.09L0.88 9.09Q0.88 8.89 1.09 8.89L1.09 8.89ZM12.45 8.29L12.45 8.29L12.45 8.29Q12.45 7.74 12.32 7.21L12.32 7.21L12.32 7.21Q12.19 6.68 11.93 6.24L11.93 6.24L11.93 6.24Q11.40 5.40 10.49 5.40L10.49 5.40L10.49 5.40Q9.53 5.40 9.04 6.24L9.04 6.24L9.04 6.24Q8.78 6.68 8.66 7.21L8.66 7.21L8.66 7.21Q8.54 7.74 8.54 8.29L8.54 8.29L8.54 8.29Q8.54 8.89 8.65 9.42L8.65 9.42L8.65 9.42Q8.76 9.95 9.04 10.33L9.04 10.33L9.04 10.33Q9.66 11.19 10.49 11.19L10.49 11.19L10.49 11.19Q11.45 11.19 11.93 10.33L11.93 10.33L11.93 10.33Q12.21 9.95 12.33 9.42L12.33 9.42L12.33 9.42Q12.45 8.89 12.45 8.29ZM13.41 8.29L13.41 8.29L13.41 8.29Q13.41 9.06 13.24 9.74L13.24 9.74L13.24 9.74Q13.06 10.42 12.70 10.88L12.70 10.88L12.70 10.88Q12.28 11.42 11.73 11.73L11.73 11.73L11.73 11.73Q11.19 12.03 10.49 12.03L10.49 12.03L10.49 12.03Q9.79 12.03 9.24 11.73L9.24 11.73L9.24 11.73Q8.69 11.42 8.27 10.88L8.27 10.88L8.27 10.88Q7.94 10.37 7.76 9.72L7.76 9.72L7.76 9.72Q7.59 9.06 7.59 8.29L7.59 8.29L7.59 8.29Q7.59 6.71 8.27 5.70L8.27 5.70L8.27 5.70Q9.07 4.56 10.49 4.56L10.49 4.56L10.49 4.56Q11.20 4.56 11.74 4.84L11.74 4.84L11.74 4.84Q12.28 5.11 12.70 5.70L12.70 5.70L12.70 5.70Q13.41 6.72 13.41 8.29ZM20.16 11.61L20.16 11.61L20.16 11.61Q20.16 11.80 19.96 11.80L19.96 11.80L19.46 11.80L19.46 11.80Q19.26 11.80 19.26 11.61L19.26 11.61L19.26 10.44L19.26 10.44Q18.90 11.28 18.37 11.66L18.37 11.66L18.37 11.66Q17.84 12.03 17.11 12.03L17.11 12.03L17.11 12.03Q14.84 12.03 14.84 9.10L14.84 9.10L14.84 4.98L14.84 4.98Q14.84 4.79 15.04 4.79L15.04 4.79L15.60 4.79L15.60 4.79Q15.79 4.79 15.79 4.98L15.79 4.98L15.79 8.85L15.79 8.85Q15.79 11.23 17.26 11.23L17.26 11.23L17.26 11.23Q17.60 11.23 17.95 11.00L17.95 11.00L17.95 11.00Q18.30 10.77 18.59 10.37L18.59 10.37L18.59 10.37Q18.89 9.97 19.04 9.44L19.04 9.44L19.04 9.44Q19.19 8.90 19.18 8.32L19.18 8.32L19.18 4.98L19.18 4.98Q19.18 4.79 19.38 4.79L19.38 4.79L19.94 4.79L19.94 4.79Q20.13 4.79 20.13 4.98L20.13 4.98L20.13 10.05L20.13 10.05Q20.13 10.51 20.14 10.88L20.14 10.88L20.14 10.88Q20.15 11.24 20.16 11.61ZM23.87 10.93L25.26 10.93L25.26 10.93Q25.45 10.93 25.45 11.13L25.45 11.13L25.45 11.61L25.45 11.61Q25.45 11.80 25.26 11.80L25.26 11.80L22.11 11.80L22.11 11.80Q21.91 11.80 21.91 11.61L21.91 11.61L21.91 11.13L21.91 11.13Q21.91 10.93 22.11 10.93L22.11 10.93L22.93 10.93L22.93 5.66L21.85 5.66L21.85 5.66Q21.66 5.66 21.66 5.46L21.66 5.46L21.66 4.98L21.66 4.98Q21.66 4.79 21.85 4.79L21.85 4.79L23.55 4.79L23.55 4.79Q23.74 4.79 23.74 4.98L23.74 4.98L23.74 6.36L23.74 6.36Q24.60 4.59 26.21 4.59L26.21 4.59L26.21 4.59Q27.03 4.59 27.69 4.91L27.69 4.91L27.69 4.91Q27.83 4.97 27.85 5.05L27.85 5.05L27.85 5.05Q27.86 5.14 27.82 5.24L27.82 5.24L27.65 5.74L27.65 5.74Q27.61 5.84 27.55 5.83L27.55 5.83L27.55 5.83Q27.48 5.82 27.38 5.77L27.38 5.77L27.38 5.77Q26.77 5.47 26.07 5.47L26.07 5.47L26.07 5.47Q24.92 5.53 24.25 6.72L24.25 6.72L24.25 6.72Q23.87 7.45 23.87 8.62L23.87 8.62L23.87 10.93ZM34.12 7.53L34.12 11.61L34.12 11.61Q34.12 11.80 33.92 11.80L33.92 11.80L33.36 11.80L33.36 11.80Q33.17 11.80 33.17 11.61L33.17 11.61L33.17 7.76L33.17 7.76Q33.17 6.47 32.82 5.93L32.82 5.93L32.82 5.93Q32.47 5.39 31.63 5.39L31.63 5.39L31.63 5.39Q30.88 5.39 30.38 5.99L30.38 5.99L30.38 5.99Q29.88 6.58 29.88 7.78L29.88 7.78L29.88 11.61L29.88 11.61Q29.88 11.80 29.68 11.80L29.68 11.80L29.12 11.80L29.12 11.80Q28.92 11.80 28.92 11.61L28.92 11.61L28.92 6.57L28.92 6.57Q28.92 5.96 28.92 5.63L28.92 5.63L28.92 5.63Q28.91 5.29 28.88 4.98L28.88 4.98L28.88 4.98Q28.87 4.89 28.93 4.84L28.93 4.84L28.93 4.84Q28.99 4.79 29.08 4.79L29.08 4.79L29.58 4.79L29.58 4.79Q29.78 4.79 29.78 4.98L29.78 4.98L29.78 5.77L29.78 5.77Q30.11 5.17 30.60 4.88L30.60 4.88L30.60 4.88Q31.08 4.59 31.71 4.59L31.71 4.59L31.71 4.59Q32.94 4.59 33.53 5.36L33.53 5.36L33.53 5.36Q34.12 6.13 34.12 7.53L34.12 7.53ZM36.62 7.84L40.38 7.84L40.38 7.84Q40.38 7.41 40.27 6.96L40.27 6.96L40.27 6.96Q40.17 6.51 39.96 6.17L39.96 6.17L39.96 6.17Q39.47 5.36 38.56 5.36L38.56 5.36L38.56 5.36Q37.65 5.36 37.13 6.19L37.13 6.19L37.13 6.19Q36.89 6.59 36.76 7.03L36.76 7.03L36.76 7.03Q36.64 7.46 36.62 7.84L36.62 7.84ZM40.91 8.64L36.61 8.64L36.61 8.64Q36.60 9.09 36.77 9.61L36.77 9.61L36.77 9.61Q36.95 10.14 37.25 10.47L37.25 10.47L37.25 10.47Q37.56 10.79 37.95 10.99L37.95 10.99L37.95 10.99Q38.35 11.19 38.91 11.19L38.91 11.19L38.91 11.19Q39.40 11.19 39.82 11.09L39.82 11.09L39.82 11.09Q40.24 10.99 40.66 10.77L40.66 10.77L40.66 10.77Q40.82 10.70 40.84 10.86L40.84 10.86L40.84 11.51L40.84 11.51Q40.84 11.62 40.68 11.69L40.68 11.69L40.68 11.69Q40.25 11.86 39.84 11.94L39.84 11.94L39.84 11.94Q39.42 12.03 38.84 12.03L38.84 12.03L38.84 12.03Q37.34 12.03 36.46 11.03L36.46 11.03L36.46 11.03Q35.57 10.02 35.57 8.33L35.57 8.33L35.57 8.33Q35.57 6.79 36.44 5.64L36.44 5.64L36.44 5.64Q37.35 4.56 38.57 4.56L38.57 4.56L38.57 4.56Q39.33 4.56 39.82 4.83L39.82 4.83L39.82 4.83Q40.32 5.10 40.71 5.64L40.71 5.64L40.71 5.64Q41.41 6.58 41.41 8.19L41.41 8.19L41.41 8.19Q41.41 8.36 41.41 8.45L41.41 8.45L41.41 8.45Q41.40 8.54 41.36 8.58L41.36 8.58L41.36 8.58Q41.31 8.62 41.21 8.63L41.21 8.63L41.21 8.63Q41.10 8.64 40.91 8.64L40.91 8.64ZM42.80 13.87L42.80 13.87L42.80 13.87Q42.63 13.83 42.66 13.66L42.66 13.66L42.70 13.15L42.70 13.15Q42.70 12.98 42.87 13.05L42.87 13.05L42.87 13.05Q43.11 13.13 43.39 13.13L43.39 13.13L43.39 13.13Q43.68 13.13 43.92 13.06L43.92 13.06L43.92 13.06Q44.17 12.99 44.30 12.84L44.30 12.84L44.30 12.84Q44.45 12.64 44.64 12.19L44.64 12.19L44.64 12.19Q44.83 11.75 45.01 11.17L45.01 11.17L45.01 11.17Q44.38 9.46 42.71 4.98L42.71 4.98L42.71 4.98Q42.69 4.91 42.71 4.85L42.71 4.85L42.71 4.85Q42.74 4.79 42.83 4.79L42.83 4.79L43.43 4.79L43.43 4.79Q43.62 4.79 43.71 4.98L43.71 4.98L45.47 9.91L47.29 4.98L47.29 4.98Q47.36 4.79 47.57 4.79L47.57 4.79L48.17 4.79L48.17 4.79Q48.26 4.79 48.29 4.85L48.29 4.85L48.29 4.85Q48.31 4.91 48.29 4.98L48.29 4.98L45.51 12.24L45.51 12.24Q45.36 12.64 45.17 12.96L45.17 12.96L45.17 12.96Q44.98 13.29 44.79 13.48L44.79 13.48L44.79 13.48Q44.53 13.72 44.23 13.84L44.23 13.84L44.23 13.84Q43.92 13.96 43.58 13.96L43.58 13.96L43.58 13.96Q43.37 13.96 43.20 13.94L43.20 13.94L43.20 13.94Q43.02 13.93 42.80 13.87ZM57.12 11.66L57.12 11.66L57.12 11.66Q56.91 11.59 56.95 11.42L56.95 11.42L57.01 10.78L57.01 10.78Q57.04 10.68 57.09 10.64L57.09 10.64L57.09 10.64Q57.15 10.60 57.23 10.65L57.23 10.65L57.23 10.65Q57.68 10.91 58.09 11.02L58.09 11.02L58.09 11.02Q58.49 11.13 59.08 11.13L59.08 11.13L59.08 11.13Q59.98 11.13 60.54 10.63L60.54 10.63L60.54 10.63Q61.11 10.14 61.11 9.37L61.11 9.37L61.11 9.37Q61.11 8.92 60.81 8.54L60.81 8.54L60.81 8.54Q60.51 8.16 59.99 7.83L59.99 7.83L59.99 7.83Q59.53 7.52 59.02 7.22L59.02 7.22L59.02 7.22Q58.52 6.93 58.06 6.59L58.06 6.59L58.06 6.59Q57.60 6.24 57.25 5.75L57.25 5.75L57.25 5.75Q56.91 5.26 56.91 4.62L56.91 4.62L56.91 4.62Q56.91 3.99 57.14 3.51L57.14 3.51L57.14 3.51Q57.37 3.02 57.77 2.70L57.77 2.70L57.77 2.70Q58.17 2.37 58.73 2.22L58.73 2.22L58.73 2.22Q59.29 2.07 59.88 2.07L59.88 2.07L59.88 2.07Q60.30 2.07 60.66 2.13L60.66 2.13L60.66 2.13Q61.01 2.18 61.49 2.37L61.49 2.37L61.49 2.37Q61.68 2.42 61.66 2.59L61.66 2.59L61.54 3.15L61.54 3.15Q61.50 3.37 61.32 3.28L61.32 3.28L61.32 3.28Q60.96 3.11 60.61 3.04L60.61 3.04L60.61 3.04Q60.26 2.97 59.86 2.97L59.86 2.97L59.86 2.97Q59.43 2.97 59.05 3.07L59.05 3.07L59.05 3.07Q58.67 3.18 58.44 3.37L58.44 3.37L58.44 3.37Q58.21 3.57 58.05 3.86L58.05 3.86L58.05 3.86Q57.89 4.16 57.89 4.58L57.89 4.58L57.89 4.58Q57.89 4.91 58.06 5.21L58.06 5.21L58.06 5.21Q58.23 5.50 58.55 5.77L58.55 5.77L58.55 5.77Q58.88 6.03 59.19 6.22L59.19 6.22L59.19 6.22Q59.49 6.40 59.82 6.61L59.82 6.61L59.82 6.61Q60.27 6.89 60.67 7.15L60.67 7.15L60.67 7.15Q61.07 7.42 61.40 7.74L61.40 7.74L61.40 7.74Q61.73 8.05 61.91 8.45L61.91 8.45L61.91 8.45Q62.09 8.85 62.09 9.35L62.09 9.35L62.09 9.35Q62.09 10.00 61.83 10.49L61.83 10.49L61.83 10.49Q61.57 10.99 61.19 11.32L61.19 11.32L61.19 11.32Q60.80 11.65 60.22 11.84L60.22 11.84L60.22 11.84Q59.64 12.03 59.02 12.03L59.02 12.03L59.02 12.03Q58.45 12.03 58.02 11.94L58.02 11.94L58.02 11.94Q57.60 11.86 57.12 11.66ZM68.98 11.79L68.98 11.79L68.98 11.79Q68.39 12.03 67.61 12.03L67.61 12.03L67.61 12.03Q66.33 12.03 65.97 11.28L65.97 11.28L65.97 11.28Q65.73 10.78 65.73 9.51L65.73 9.51L65.73 5.92L63.91 5.92L63.91 5.92Q63.71 5.92 63.71 5.73L63.71 5.73L63.71 5.31L63.71 5.31Q63.71 5.11 63.91 5.11L63.91 5.11L65.73 5.11L65.73 3.14L65.73 3.14Q65.73 2.93 65.91 2.93L65.91 2.93L66.50 2.93L66.50 2.93Q66.68 2.93 66.68 3.14L66.68 3.14L66.68 5.11L68.94 5.11L68.94 5.11Q69.13 5.11 69.13 5.31L69.13 5.31L69.13 5.73L69.13 5.73Q69.13 5.92 68.94 5.92L68.94 5.92L66.68 5.92L66.68 10.14L66.68 10.14Q66.68 11.19 67.83 11.19L67.83 11.19L67.83 11.19Q68.40 11.19 68.92 10.95L68.92 10.95L68.92 10.95Q68.99 10.92 69.06 10.95L69.06 10.95L69.06 10.95Q69.12 10.98 69.12 11.06L69.12 11.06L69.15 11.51L69.15 11.51Q69.17 11.70 68.98 11.79ZM75.45 8.29L75.45 8.29L75.45 8.29Q75.45 7.74 75.32 7.21L75.32 7.21L75.32 7.21Q75.19 6.68 74.93 6.24L74.93 6.24L74.93 6.24Q74.40 5.40 73.49 5.40L73.49 5.40L73.49 5.40Q72.53 5.40 72.04 6.24L72.04 6.24L72.04 6.24Q71.78 6.68 71.66 7.21L71.66 7.21L71.66 7.21Q71.54 7.74 71.54 8.29L71.54 8.29L71.54 8.29Q71.54 8.89 71.65 9.42L71.65 9.42L71.65 9.42Q71.76 9.95 72.04 10.33L72.04 10.33L72.04 10.33Q72.66 11.19 73.49 11.19L73.49 11.19L73.49 11.19Q74.45 11.19 74.93 10.33L74.93 10.33L74.93 10.33Q75.21 9.95 75.33 9.42L75.33 9.42L75.33 9.42Q75.45 8.89 75.45 8.29ZM76.41 8.29L76.41 8.29L76.41 8.29Q76.41 9.06 76.24 9.74L76.24 9.74L76.24 9.74Q76.06 10.42 75.70 10.88L75.70 10.88L75.70 10.88Q75.28 11.42 74.73 11.73L74.73 11.73L74.73 11.73Q74.19 12.03 73.49 12.03L73.49 12.03L73.49 12.03Q72.79 12.03 72.24 11.73L72.24 11.73L72.24 11.73Q71.69 11.42 71.27 10.88L71.27 10.88L71.27 10.88Q70.94 10.37 70.76 9.72L70.76 9.72L70.76 9.72Q70.59 9.06 70.59 8.29L70.59 8.29L70.59 8.29Q70.59 6.71 71.27 5.70L71.27 5.70L71.27 5.70Q72.07 4.56 73.49 4.56L73.49 4.56L73.49 4.56Q74.20 4.56 74.74 4.84L74.74 4.84L74.74 4.84Q75.28 5.11 75.70 5.70L75.70 5.70L75.70 5.70Q76.41 6.72 76.41 8.29ZM82.74 11.83L82.74 11.83L82.74 11.83Q82.36 11.93 82.05 11.96L82.05 11.96L82.05 11.96Q81.75 12.00 81.27 12.00L81.27 12.00L81.27 12.00Q80.46 12.00 79.82 11.71L79.82 11.71L79.82 11.71Q79.18 11.42 78.71 10.92L78.71 10.92L78.71 10.92Q78.23 10.42 77.99 9.74L77.99 9.74L77.99 9.74Q77.76 9.06 77.76 8.27L77.76 8.27L77.76 8.27Q77.76 7.48 78.01 6.80L78.01 6.80L78.01 6.80Q78.26 6.13 78.72 5.64L78.72 5.64L78.72 5.64Q79.18 5.15 79.82 4.87L79.82 4.87L79.82 4.87Q80.46 4.58 81.27 4.58L81.27 4.58L81.27 4.58Q81.70 4.58 82.03 4.61L82.03 4.61L82.03 4.61Q82.35 4.65 82.75 4.75L82.75 4.75L82.75 4.75Q82.94 4.79 82.92 4.98L82.92 4.98L82.88 5.46L82.88 5.46Q82.85 5.63 82.68 5.59L82.68 5.59L82.68 5.59Q82.35 5.47 82.05 5.43L82.05 5.43L82.05 5.43Q81.75 5.38 81.40 5.38L81.40 5.38L81.40 5.38Q80.81 5.38 80.30 5.61L80.30 5.61L80.30 5.61Q79.79 5.84 79.46 6.23L79.46 6.23L79.46 6.23Q79.14 6.62 78.97 7.15L78.97 7.15L78.97 7.15Q78.79 7.67 78.79 8.27L78.79 8.27L78.79 8.27Q78.79 8.82 78.97 9.35L78.97 9.35L78.97 9.35Q79.16 9.87 79.47 10.28L79.47 10.28L79.47 10.28Q79.79 10.70 80.30 10.95L80.30 10.95L80.30 10.95Q80.81 11.20 81.40 11.20L81.40 11.20L81.40 11.20Q81.75 11.20 82.03 11.16L82.03 11.16L82.03 11.16Q82.31 11.12 82.67 10.99L82.67 10.99L82.67 10.99Q82.82 10.95 82.88 11.09L82.88 11.09L82.92 11.59L82.92 11.59Q82.94 11.79 82.74 11.83ZM90.29 4.86L87.72 7.90L90.47 11.61L90.47 11.61Q90.51 11.68 90.50 11.74L90.50 11.74L90.50 11.74Q90.48 11.80 90.40 11.80L90.40 11.80L89.78 11.80L89.78 11.80Q89.64 11.80 89.53 11.76L89.53 11.76L89.53 11.76Q89.42 11.72 89.35 11.61L89.35 11.61L87.14 8.60L86.18 9.73L86.18 11.61L86.18 11.61Q86.18 11.80 85.99 11.80L85.99 11.80L85.43 11.80L85.43 11.80Q85.23 11.80 85.23 11.61L85.23 11.61L85.23 1.69L85.23 1.69Q85.23 1.50 85.43 1.50L85.43 1.50L85.99 1.50L85.99 1.50Q86.18 1.50 86.18 1.69L86.18 1.69L86.18 8.44L86.55 7.98L89.21 4.76L89.21 4.76Q89.32 4.66 89.50 4.66L89.50 4.66L90.22 4.66L90.22 4.66Q90.30 4.66 90.33 4.73L90.33 4.73L90.33 4.73Q90.36 4.79 90.29 4.86L90.29 4.86ZM92.27 10.88L92.27 10.88L92.27 10.88Q93.17 11.23 94.12 11.23L94.12 11.23L94.12 11.23Q94.92 11.23 95.47 10.83L95.47 10.83L95.47 10.83Q96.03 10.43 96.03 10.02L96.03 10.02L96.03 10.02Q96.03 9.65 95.72 9.37L95.72 9.37L95.72 9.37Q95.41 9.09 94.96 8.86L94.96 8.86L94.96 8.86Q94.49 8.61 94.03 8.38L94.03 8.38L94.03 8.38Q93.58 8.15 93.11 7.91L93.11 7.91L93.11 7.91Q92.58 7.64 92.34 7.26L92.34 7.26L92.34 7.26Q92.09 6.87 92.09 6.51L92.09 6.51L92.09 6.51Q92.09 6.06 92.29 5.71L92.29 5.71L92.29 5.71Q92.48 5.36 92.82 5.10L92.82 5.10L92.82 5.10Q93.16 4.83 93.64 4.70L93.64 4.70L93.64 4.70Q94.12 4.56 94.67 4.56L94.67 4.56L94.67 4.56Q95.17 4.56 95.59 4.62L95.59 4.62L95.59 4.62Q96.01 4.68 96.46 4.82L96.46 4.82L96.46 4.82Q96.56 4.84 96.62 4.90L96.62 4.90L96.62 4.90Q96.68 4.96 96.67 5.04L96.67 5.04L96.63 5.49L96.63 5.49Q96.61 5.60 96.54 5.63L96.54 5.63L96.54 5.63Q96.46 5.66 96.39 5.63L96.39 5.63L96.39 5.63Q95.98 5.47 95.61 5.42L95.61 5.42L95.61 5.42Q95.23 5.36 94.77 5.36L94.77 5.36L94.77 5.36Q93.07 5.36 93.07 6.51L93.07 6.51L93.07 6.51Q93.07 6.72 93.30 6.95L93.30 6.95L93.30 6.95Q93.52 7.18 94.07 7.42L94.07 7.42L94.07 7.42Q94.60 7.67 95.03 7.88L95.03 7.88L95.03 7.88Q95.45 8.08 95.97 8.36L95.97 8.36L95.97 8.36Q96.59 8.72 96.82 9.11L96.82 9.11L96.82 9.11Q97.05 9.51 97.05 10.01L97.05 10.01L97.05 10.01Q97.05 10.42 96.81 10.84L96.81 10.84L96.81 10.84Q96.57 11.26 96.17 11.51L96.17 11.51L96.17 11.51Q95.77 11.76 95.26 11.89L95.26 11.89L95.26 11.89Q94.74 12.03 94.21 12.03L94.21 12.03L94.21 12.03Q93.87 12.03 93.61 12.01L93.61 12.01L93.61 12.01Q93.35 12.00 93.12 11.97L93.12 11.97L93.12 11.97Q92.89 11.94 92.66 11.90L92.66 11.90L92.66 11.90Q92.43 11.86 92.18 11.79L92.18 11.79L92.18 11.79Q91.95 11.72 91.97 11.55L91.97 11.55L92.04 11.00L92.04 11.00Q92.08 10.79 92.27 10.88Z"></path></g><!----><g data-v-423bf9ae="" id="01cf3447-165e-439f-bb69-b36c55f02d04" transform="matrix(1.0868111504448785,0,0,1.0868111504448785,-13.255261890115804,-0.23894260335429607)" stroke="none" fill="white"><g clip-rule="evenodd"><path d="M12.983 10.59l17.018 88.223-5.872-59.049 29.021-1.892-.054-9.883L64.549 1 53.622 18.977z"></path><path d="M59.389 54.548l5.16-53.541-8.74 39.716-19.612 1.045 1.57 20.462-7.766 36.583 12.057-39.899z"></path><path d="M62.8 67.182l.549-10.453-15.979 3.755-.032 11.797-17.337 26.532 21.68-27.616zM65.711 62.394l14.841-4.731 1.509-12.532-15.899 2.095zM72.07 44.502l10.988-1.417 1.581-10.278-8.079-.373L64.549 1l8.43 30.967z"></path><path d="M87.413 31.294l1.256-9.506-9.544-2.694L64.549 1l14.483 22.437-.422 7z"></path></g></g><!----></svg>